HIERARCHY
ROOT Hips
{
	OFFSET 0.000000 0.000000 0.000000 
	CHANNELS 6 Xposition Yposition Zposition Yrotation Zrotation Xrotation 
	JOINT Lumbar
	{
		OFFSET 0.000000 0.000000 0.000000 
		CHANNELS 3 Zrotation Xrotation Yrotation
		JOINT Neck
		{
			OFFSET 0.000000 0.445665 0.000000 
			CHANNELS 3 Zrotation Xrotation Yrotation
			End Site
			{
				OFFSET 0.000000 0.227535 0.000000 
			}
		}
		JOINT RightShoulder
		{
			OFFSET 0.019635 0.377685 0.194865 
			CHANNELS 3 Zrotation Xrotation Yrotation
			JOINT RightElbow
			{
				OFFSET 0.000000 -0.243375 0.000000 
				CHANNELS 2 Zrotation Yrotation
				JOINT RightWrist
				{
					OFFSET 0.000000 -0.264825 0.000000 
					CHANNELS 2 Zrotation Xrotation
					End Site
					{
						OFFSET 0.006600 -0.176220 0.000990 
					}
				}
			}
		}
		JOINT LeftShoulder
		{
			OFFSET 0.019635 0.377685 -0.194865 
			CHANNELS 3 Zrotation Xrotation Yrotation
			JOINT LeftElbow
			{
				OFFSET 0.000000 -0.243375 0.000000 
				CHANNELS 2 Zrotation Yrotation
				JOINT LeftWrist
				{
					OFFSET 0.000000 -0.264825 0.000000 
					CHANNELS 2 Zrotation Xrotation
					End Site
					{
						OFFSET 0.006600 -0.176220 -0.000990 
					}
				}
			}
		}
	}
	JOINT RightHip
	{
		OFFSET 0.052140 -0.069960 0.075570 
		CHANNELS 3 Zrotation Xrotation Yrotation
		JOINT RightKnee
		{
			OFFSET 0.000000 -0.402270 0.000000 
			CHANNELS 1 Zrotation
			JOINT RightAnkle
			{
				OFFSET 0.000000 -0.404085 0.000000 
				CHANNELS 3 Zrotation Xrotation Yrotation
				End Site
				{
					OFFSET 0.204105 -0.089430 0.008415 
				}
			}
		}
	}
	JOINT LeftHip
	{
		OFFSET 0.052140 -0.069960 -0.075570 
		CHANNELS 3 Zrotation Xrotation Yrotation
		JOINT LeftKnee
		{
			OFFSET 0.000000 -0.402270 0.000000 
			CHANNELS 1 Zrotation
			JOINT LeftAnkle
			{
				OFFSET 0.000000 -0.404085 0.000000 
				CHANNELS 3 Zrotation Xrotation Yrotation
				End Site
				{
					OFFSET 0.204105 -0.089430 -0.008415 
				}
			}
		}
	}
}
MOTION
Frames: 25
Frame Time: 0.02
1.35417 0.27025 -0.42657 15.11732 -25.38356 -4.30269 45.77216 -1.95684 -8.75982 -15.31402 9.76181 -2.11994 14.30894 -5.88655 8.58103 112.17493 77.39455 -7.30082 0.08868 -6.75639 10.7251 -23.88639 112.50433 -122.05861 13.45032 -6.76101 20.6717 -7.967 -11.63256 -0.20879 8.903 -7.95369 -4.58167 19.13339 2.92171 -12.17115 0.52234 -3.54585 35.75902 19.53244
1.35389 0.27033 -0.42669 15.07645 -25.4186 -4.32992 45.76949 -1.92979 -8.8257 -15.44608 9.4452 -2.11994 14.1759 -5.91818 9.44083 112.34912 77.95142 -6.67485 0.66925 -6.3955 10.73805 -23.95976 112.32314 -118.2504 13.07131 -5.92275 20.65287 -7.94558 -8.09622 -0.0331 6.82712 -12.2243 -7.02964 19.21029 2.93413 -12.15281 0.52224 -3.48328 35.6213 19.50464
1.35372 0.27046 -0.42665 15.05967 -25.45754 -4.36617 45.76564 -1.89689 -8.91072 -15.61011 9.06761 -2.11994 13.99253 -5.89107 10.46268 112.56558 77.80652 -6.01228 1.71874 -5.95252 10.82166 -24.08471 112.10902 -111.78907 12.20261 -4.565 20.71456 -7.91898 -3.48563 -0.02073 3.7579 -17.49476 -10.12685 19.2982 2.96687 -12.13464 0.52198 -3.36352 35.38269 19.4558
1.35349 0.27057 -0.42667 15.03048 -25.49443 -4.39834 45.75704 -1.86655 -8.98315 -15.75372 8.72517 -2.11994 13.83132 -5.90517 11.43492 112.75446 78.13405 -5.33012 2.52071 -5.55526 10.85685 -24.17697 111.9157 -106.91675 11.65454 -3.51102 20.73797 -7.89389 0.48073 0.0707 1.23732 -22.13782 -12.82816 19.38145 2.99075 -12.11656 0.5218 -3.27362 35.19685 19.41785
1.35332 0.27069 -0.42675 15.00867 -25.53239 -4.43038 45.77124 -1.83684 -9.07236 -15.9234 8.34998 -2.11994 13.67432 -5.86572 12.31433 112.97885 77.89136 -4.78151 3.44738 -5.12316 10.95572 -24.30536 111.69664 -100.53838 10.72442 -2.19036 20.76127 -7.87102 5.04354 0.15429 -1.68246 -27.45458 -15.92763 19.46307 3.01349 -12.0977 0.52156 -3.16549 34.97867 19.37332
1.35304 0.2708 -0.42667 14.97678 -25.56977 -4.46485 45.73792 -1.80444 -9.1307 -16.04512 8.02951 -2.11994 13.49611 -5.91949 13.41865 113.13899 78.62217 -3.9611 4.23569 -4.74344 10.94218 -24.37333 111.52392 -96.59804 10.45148 -1.29098 20.80749 -7.84281 8.64215 0.21061 -4.00942 -31.62502 -18.36203 19.55152 3.04327 -12.08039 0.52141 -3.08227 34.80482 19.33781
1.35248 0.27083 -0.42623 14.91067 -25.59581 -4.50377 45.5681 -1.76498 -9.10335 -16.03674 7.86923 -2.11994 13.27265 -6.26218 15.14743 113.1147 82.42599 -2.30617 4.49915 -4.53409 10.58326 -24.24339 111.48552 -100.3528 12.23447 -1.72441 20.88753 -7.80131 9.32879 0.23124 -4.47895 -32.41761 -18.80909 19.64657 3.08736 -12.06914 0.52149 -3.0847 34.78162 19.33317
1.3518 0.27085 -0.42564 14.83355 -25.62255 -4.54479 45.35134 -1.72318 -9.04365 -15.97727 7.7672 -2.11994 13.02974 -6.69658 17.08714 113.02373 87.18228 -0.39874 4.61345 -4.37934 10.11294 -24.05435 111.49527 -106.57885 14.66884 -2.58908 20.99046 -7.75483 9.01627 0.22828 -4.31778 -32.02748 -18.56814 19.74967 3.13778 -12.0592 0.52167 -3.11408 34.80649 19.33837
1.35117 0.27087 -0.42511 14.76153 -25.65479 -4.58493 45.15966 -1.6831 -8.99573 -15.93423 7.64266 -2.11994 12.79426 -7.07698 18.90281 112.96105 91.35889 1.33176 4.81908 -4.19571 9.7053 -23.90479 111.48429 -111.46042 16.724 -3.22714 21.09037 -7.71067 9.15927 0.23463 -4.4292 -32.16251 -18.63946 19.85542 3.18537 -12.04739 0.52182 -3.12936 34.80734 19.33866
1.35057 0.27091 -0.4246 14.68969 -25.6631 -4.62524 44.95238 -1.64001 -8.96006 -15.92013 7.49986 -2.11994 12.56086 -7.50775 20.84782 112.90815 96.14613 3.32993 4.94786 -4.02587 9.24774 -23.70425 111.46752 -117.2001 19.11885 -3.97917 21.16228 -7.66587 9.32533 0.24169 -4.62388 -32.37131 -18.72976 19.93548 3.23359 -12.04067 0.52191 -3.14982 34.81321 19.33998
1.34986 0.2709 -0.42401 14.61486 -25.72077 -4.66537 44.76614 -1.60275 -8.89191 -15.83426 7.40898 -2.11994 12.32184 -7.85576 22.56559 112.81878 99.87887 4.82541 5.18705 -3.84202 8.8686 -23.59452 111.4744 -121.75542 20.96066 -4.59982 21.29631 -7.62154 9.20129 0.24348 -4.49553 -32.14797 -18.61485 20.07012 3.28159 -12.02404 0.52215 -3.1674 34.8221 19.34188
1.34885 0.27079 -0.42318 14.53175 -25.91974 -4.70619 44.65228 -1.582 -8.7336 -15.55344 7.45408 -2.11994 12.04924 -7.95688 23.65291 112.64257 100.62664 4.91208 5.83788 -3.60063 8.71717 -23.75544 111.53758 -122.61326 21.17746 -4.78267 21.60219 -7.57771 8.43308 0.23775 -3.50828 -30.87592 -18.0417 20.3596 3.32874 -11.97604 0.52278 -3.16323 34.82029 19.34157
1.34773 0.27064 -0.42227 14.44652 -26.1674 -4.74642 44.56076 -1.56726 -8.54524 -15.20368 7.54853 -2.11994 11.77604 -7.97169 24.49436 112.43234 100.25932 4.47815 6.59068 -3.34473 8.65074 -24.00832 111.62261 -122.18325 20.80943 -4.81676 21.96873 -7.53497 7.41328 0.22714 -2.23196 -29.22395 -17.28994 20.70258 3.37514 -11.91851 0.52356 -3.15605 34.8207 19.34159
1.34667 0.27051 -0.4214 14.36372 -26.38933 -4.7857 44.45709 -1.54994 -8.37601 -14.89147 7.61607 -2.11994 11.51851 -8.02285 25.41566 112.23895 100.29404 4.25299 7.24692 -3.09943 8.55618 -24.21557 111.6959 -122.2276 20.667 -4.89967 22.30267 -7.49296 6.56753 0.21993 -1.16683 -27.84625 -16.66092 21.017 3.42092 -11.86802 0.52427 -3.15637 34.8267 19.34289
1.34556 0.27036 -0.4205 14.27376 -26.62641 -4.8301 44.35993 -1.53197 -8.18236 -14.55144 7.70416 -2.11994 11.19581 -8.08681 26.47905 112.03694 100.78104 4.14631 8.10554 -2.83889 8.41526 -24.43787 111.77826 -122.78612 20.70299 -5.07058 22.65693 -7.44532 5.45705 0.21068 0.24262 -26.03194 -15.84853 21.34952 3.4709 -11.80698 0.525 -3.13516 34.81073 19.33971
1.34451 0.27025 -0.41964 14.19913 -26.84358 -4.8638 44.2555 -1.51674 -8.03309 -14.2534 7.76089 -2.11994 11.00826 -8.10556 27.18531 111.84627 100.07725 3.6757 8.57467 -2.60616 8.39027 -24.65033 111.84658 -121.98445 20.23717 -5.02486 22.98519 -7.41011 4.82406 0.19998 1.01307 -25.01066 -15.36481 21.65708 3.51197 -11.76458 0.5257 -3.15337 34.83509 19.34424
1.34365 0.2703 -0.41891 14.16086 -26.99254 -4.86686 44.12146 -1.50811 -8.01175 -14.08996 7.715 -2.11994 11.20221 -7.99402 26.96625 111.68995 96.11553 2.24577 7.89157 -2.45114 8.68501 -24.82308 111.86845 -117.31189 18.37839 -4.35015 23.20942 -7.40596 5.81367 0.22402 -0.20987 -26.6407 -16.00855 21.88097 3.52797 -11.78255 0.52646 -3.31698 35.01354 19.3815
1.34284 0.27039 -0.41823 14.13945 -27.11969 -4.85943 43.97964 -1.50185 -8.03655 -13.97066 7.63655 -2.11994 11.53202 -7.84488 26.39653 111.54715 91.03819 0.48408 6.82288 -2.32425 9.09047 -24.98149 111.87578 -111.3791 16.05912 -3.47218 23.40992 -7.41498 7.25736 0.23675 -2.06303 -29.02534 -16.96303 22.07789 3.5352 -11.81664 0.52706 -3.51244 35.22249 19.42293
1.342 0.27045 -0.41754 14.11456 -27.25809 -4.85758 43.84517 -1.49431 -8.04173 -13.83078 7.57494 -2.11994 11.79277 -7.72942 25.98393 111.40249 86.62124 -1.07661 5.96596 -2.18672 9.43211 -25.13978 111.89089 -106.2981 14.04666 -2.73025 23.63075 -7.41979 8.3324 0.23416 -3.52246 -30.82061 -17.65894 22.28854 3.54676 -11.84124 0.52775 -3.67114 35.39102 19.45656
1.3412 0.27056 -0.41678 14.0716 -27.39386 -4.85212 43.69816 -1.48823 -8.04045 -13.69236 7.50536 -2.11994 12.07921 -7.5393 25.5663 111.24016 81.50316 -2.87778 4.96018 -2.04213 9.83267 -25.32793 111.90127 -100.0117 11.60449 -1.8024 23.80758 -7.41662 10.06172 0.33066 -5.40969 -33.61618 -18.83005 22.49591 3.55658 -11.88179 0.52879 -3.9284 35.67876 19.52075
1.34032 0.27058 -0.41618 14.0707 -27.52765 -4.85187 43.57159 -1.47909 -8.06362 -13.56013 7.44537 -2.11994 12.3509 -7.49896 25.08665 111.11623 77.614 -4.23702 4.16917 -1.91601 10.13696 -25.45096 111.91847 -95.93287 9.95295 -1.21121 24.07694 -7.43382 10.56643 0.202 -6.57797 -34.54533 -19.10464 22.70167 3.5683 -11.88409 0.52853 -3.98223 35.71669 19.51524
1.33932 0.2704 -0.4161 14.17864 -27.67646 -4.86727 43.53395 -1.46503 -8.14579 -13.45218 7.40784 -2.11994 12.49812 -7.86332 24.45457 111.10885 77.21818 -4.41144 4.08512 -1.8593 10.13787 -25.38383 111.9513 -98.42798 10.6171 -1.63471 24.54462 -7.49791 7.34782 -0.40288 -5.4462 -29.85643 -16.68196 22.92318 3.58478 -11.85434 0.52717 -3.5231 35.13106 19.37694
1.33824 0.27013 -0.41617 14.32894 -27.82182 -4.88861 43.51152 -1.44687 -8.25021 -13.34527 7.38313 -2.11994 12.63852 -8.3831 23.78414 111.13442 78.12528 -4.11028 4.22586 -1.81476 10.03998 -25.25437 111.99233 -103.15689 12.08878 -2.39753 25.11761 -7.5826 2.92443 -1.25718 -3.59841 -23.31678 -13.37402 23.14292 3.60423 -11.77158 0.52265 -2.85288 34.27889 19.15753
1.33714 0.26986 -0.41614 14.46196 -27.95751 -4.90798 43.46165 -1.428 -8.34328 -13.22729 7.36005 -2.11994 12.81107 -8.84457 23.17863 111.13965 78.56782 -3.94135 4.25095 -1.74909 9.99326 -25.16129 112.03431 -106.7655 13.18469 -2.98331 25.68351 -7.66265 -0.79335 -2.09523 -2.18811 -17.8106 -10.56842 23.35203 3.62375 -11.66168 0.51971 -2.23547 33.5008 18.93477
1.33627 0.26977 -0.41626 14.58727 -28.13641 -4.92355 43.49729 -1.4206 -8.44481 -13.15828 7.30408 -2.11994 12.85237 -9.2544 22.36745 111.17964 78.47394 -4.11796 4.32163 -1.75342 9.92239 -25.03134 112.05733 -110.79732 14.31441 -3.6608 26.07688 -7.72567 -5.15833 -2.53775 -0.33554 -11.52076 -7.35306 23.60133 3.63596 -11.76664 0.52183 -1.77944 32.92367 18.87975
